<svg xmlns="http://www.w3.org/2000/svg" viewBox="0 0 1024 1024" role="img" aria-label="Иконка CRM МБЗ">
  <defs>
    <linearGradient id="bg" x1="140" y1="80" x2="900" y2="960" gradientUnits="userSpaceOnUse">
      <stop offset="0" stop-color="#102C54"/>
      <stop offset="0.45" stop-color="#071B3A"/>
      <stop offset="1" stop-color="#020914"/>
    </linearGradient>
    <linearGradient id="gold" x1="240" y1="270" x2="820" y2="780" gradientUnits="userSpaceOnUse">
      <stop offset="0" stop-color="#FFF3B0"/>
      <stop offset="0.2" stop-color="#E9BE42"/>
      <stop offset="0.48" stop-color="#D4A017"/>
      <stop offset="0.72" stop-color="#9C6706"/>
      <stop offset="1" stop-color="#F2CF6E"/>
    </linearGradient>
    <linearGradient id="mountain" x1="260" y1="180" x2="760" y2="360" gradientUnits="userSpaceOnUse">
      <stop offset="0" stop-color="#D4A017"/>
      <stop offset="0.38" stop-color="#FFFFFF"/>
      <stop offset="0.66" stop-color="#E4B83B"/>
      <stop offset="1" stop-color="#6B4A10"/>
    </linearGradient>
    <filter id="softShadow" x="-20%" y="-20%" width="140%" height="150%">
      <feDropShadow dx="0" dy="24" stdDeviation="26" flood-color="#000000" flood-opacity="0.55"/>
    </filter>
    <filter id="goldGlow" x="-20%" y="-20%" width="140%" height="140%">
      <feDropShadow dx="0" dy="8" stdDeviation="8" flood-color="#D4A017" flood-opacity="0.45"/>
    </filter>
    <clipPath id="clip">
      <rect x="28" y="28" width="968" height="968" rx="210"/>
    </clipPath>
  </defs>

  <rect x="28" y="28" width="968" height="968" rx="210" fill="url(#bg)"/>
  <g clip-path="url(#clip)">
    <path d="M132 875 C270 816 384 862 512 826 C642 790 764 814 910 742 L910 996 L132 996 Z" fill="#030A17" opacity="0.5"/>
    <path d="M62 122 C236 40 468 40 676 112 C800 155 908 240 976 348" fill="none" stroke="#FFFFFF" stroke-width="5" opacity="0.13"/>
    <path d="M92 892 C278 808 428 838 584 792 C726 751 826 676 956 606" fill="none" stroke="#D4A017" stroke-width="4" opacity="0.34"/>
  </g>

  <rect x="28" y="28" width="968" height="968" rx="210" fill="none" stroke="#FFFFFF" stroke-width="4" opacity="0.18"/>
  <rect x="44" y="44" width="936" height="936" rx="196" fill="none" stroke="#D4A017" stroke-width="6" opacity="0.28"/>

  <g filter="url(#softShadow)">
    <path d="M222 372 L396 178 L494 316 L574 218 L802 386 L628 316 L578 364 L506 300 L436 394 L384 292 Z" fill="#06152C"/>
    <path d="M222 372 L396 178 L440 300 L494 316 L574 218 L802 386 L636 306 L578 364 L506 300 L436 394 L384 292 Z" fill="url(#mountain)"/>
    <path d="M396 178 L384 292 L436 394 L440 300 Z" fill="#FFFFFF" opacity="0.72"/>
    <path d="M574 218 L578 364 L636 306 Z" fill="#FFFFFF" opacity="0.76"/>
    <path d="M494 316 L506 300 L578 364 L520 356 Z" fill="#071B3A" opacity="0.85"/>
  </g>

  <g filter="url(#goldGlow)">
    <text x="512" y="690"
      text-anchor="middle"
      font-family="Arial Black, Impact, system-ui, sans-serif"
      font-size="238"
      font-weight="900"
      letter-spacing="-10"
      fill="#071B3A"
      stroke="#000000"
      stroke-width="30"
      opacity="0.55">МБЗ</text>
    <text x="512" y="672"
      text-anchor="middle"
      font-family="Arial Black, Impact, system-ui, sans-serif"
      font-size="238"
      font-weight="900"
      letter-spacing="-10"
      fill="url(#gold)"
      stroke="#FFE58A"
      stroke-width="7">МБЗ</text>
    <text x="512" y="672"
      text-anchor="middle"
      font-family="Arial Black, Impact, system-ui, sans-serif"
      font-size="238"
      font-weight="900"
      letter-spacing="-10"
      fill="none"
      stroke="#6A4300"
      stroke-width="3"
      opacity="0.6">МБЗ</text>
  </g>

  <path d="M244 738 H780" stroke="#D4A017" stroke-width="8" stroke-linecap="round" opacity="0.72"/>
  <path d="M330 772 H694" stroke="#FFFFFF" stroke-width="3" stroke-linecap="round" opacity="0.2"/>
  <circle cx="824" cy="208" r="7" fill="#FFFFFF" opacity="0.9"/>
  <path d="M824 172 V244 M788 208 H860" stroke="#D4A017" stroke-width="5" stroke-linecap="round" opacity="0.75"/>
</svg>
